<?xml version="1.0" encoding="UTF-8"?>
<!DOCTYPE svg PUBLIC "-//W3C//DTD SVG 1.1//EN" "http://www.w3.org/Graphics/SVG/1.1/DTD/svg11.dtd">
<svg xmlns="http://www.w3.org/2000/svg" version="1.1" width="512px" height="512px" style="shape-rendering:geometricPrecision; text-rendering:geometricPrecision; image-rendering:optimizeQuality; fill-rule:evenodd; clip-rule:evenodd" xmlns:xlink="http://www.w3.org/1999/xlink">
<g><path style="opacity:0.99" fill="#000000" d="M 235.5,-0.5 C 248.833,-0.5 262.167,-0.5 275.5,-0.5C 359.204,12.3662 414.37,59.0328 441,139.5C 452.132,184.116 449.132,227.783 432,270.5C 414.203,313.781 391.536,354.114 364,391.5C 332.257,434.084 297.424,474.084 259.5,511.5C 256.833,511.5 254.167,511.5 251.5,511.5C 192.402,454.924 142.569,391.257 102,320.5C 82.3472,285.874 69.6805,248.874 64,209.5C 59.4246,139.847 83.9246,83.0132 137.5,39C 166.696,17.2357 199.363,4.06901 235.5,-0.5 Z M 256.5,103.5 C 303.224,107.724 331.724,132.724 342,178.5C 345.638,221.74 328.138,252.907 289.5,272C 244.867,287.234 208.7,275.734 181,237.5C 164.333,206.833 164.333,176.167 181,145.5C 199.124,118.854 224.291,104.854 256.5,103.5 Z"/></g>
</svg>
