<?xml version="1.0" encoding="UTF-8"?>
<!DOCTYPE svg PUBLIC "-//W3C//DTD SVG 1.1//EN" "http://www.w3.org/Graphics/SVG/1.1/DTD/svg11.dtd">
<svg xmlns="http://www.w3.org/2000/svg" version="1.1" width="512px" height="512px" style="shape-rendering:geometricPrecision; text-rendering:geometricPrecision; image-rendering:optimizeQuality; fill-rule:evenodd; clip-rule:evenodd" xmlns:xlink="http://www.w3.org/1999/xlink">
<g><path style="opacity:0.996" fill="#222222" d="M 140.5,41.5 C 188.767,40.3363 227.1,59.0029 255.5,97.5C 291.12,51.0089 337.787,33.8422 395.5,46C 450.444,63.2783 481.944,100.445 490,157.5C 492.484,219.036 475.817,274.703 440,324.5C 418.243,353.591 393.076,379.424 364.5,402C 330.514,428.008 294.18,450.508 255.5,469.5C 195.553,440.947 142.386,402.947 96,355.5C 65.2717,322.376 43.2717,284.043 30,240.5C 19.6578,205.855 17.9912,170.855 25,135.5C 43.8424,79.8497 82.3424,48.5164 140.5,41.5 Z"/></g>
</svg>
