<?xml version="1.0" encoding="UTF-8"?>
<!DOCTYPE svg PUBLIC "-//W3C//DTD SVG 1.1//EN" "http://www.w3.org/Graphics/SVG/1.1/DTD/svg11.dtd">
<svg xmlns="http://www.w3.org/2000/svg" version="1.1" width="512px" height="512px" style="shape-rendering:geometricPrecision; text-rendering:geometricPrecision; image-rendering:optimizeQuality; fill-rule:evenodd; clip-rule:evenodd" xmlns:xlink="http://www.w3.org/1999/xlink">
<g><path style="opacity:0.989" fill="#000000" d="M 243.5,4.5 C 298.311,2.13438 336.811,25.801 359,75.5C 374.115,121.868 364.615,162.368 330.5,197C 294.044,227.103 253.711,233.436 209.5,216C 168.24,195.191 146.574,161.524 144.5,115C 147.676,62.1868 174.01,26.8534 223.5,9C 230.259,7.28494 236.925,5.78494 243.5,4.5 Z"/></g>
<g><path style="opacity:0.992" fill="#000000" d="M 237.5,257.5 C 311.944,253.991 374.444,279.324 425,333.5C 445.922,361.378 450.256,391.711 438,424.5C 429.72,443.446 416.554,457.946 398.5,468C 319.108,511.921 236.775,518.255 151.5,487C 131.789,479.315 113.456,469.315 96.5,457C 67.5576,429.063 59.3909,395.896 72,357.5C 75.6437,348.876 80.3103,340.876 86,333.5C 126.767,288.866 177.267,263.533 237.5,257.5 Z"/></g>
</svg>
