<?xml version="1.0" encoding="UTF-8"?>
<!DOCTYPE svg PUBLIC "-//W3C//DTD SVG 1.1//EN" "http://www.w3.org/Graphics/SVG/1.1/DTD/svg11.dtd">
<svg xmlns="http://www.w3.org/2000/svg" version="1.1" width="512px" height="512px" style="shape-rendering:geometricPrecision; text-rendering:geometricPrecision; image-rendering:optimizeQuality; fill-rule:evenodd; clip-rule:evenodd" xmlns:xlink="http://www.w3.org/1999/xlink">
<g><path style="opacity:0.992" fill="#000000" d="M 243.5,41.5 C 330.659,40.4804 396.826,76.8137 442,150.5C 478.667,220.5 478.667,290.5 442,360.5C 396.854,434.337 330.687,470.503 243.5,469C 214.976,467.786 187.976,460.786 162.5,448C 132.772,447.977 103.105,447.31 73.5,446C 68.8558,443.359 65.6891,439.525 64,434.5C 63.6667,405.833 63.3333,377.167 63,348.5C 43.8327,308.839 37.4994,267.173 44,223.5C 56.0067,155.543 91.5067,104.043 150.5,69C 179.653,53.1339 210.653,43.9673 243.5,41.5 Z M 185.5,234.5 C 198.405,233.574 206.905,239.241 211,251.5C 211.638,263.705 206.138,271.872 194.5,276C 179.88,276.893 171.213,270.06 168.5,255.5C 170.189,245.156 175.856,238.156 185.5,234.5 Z M 250.5,234.5 C 262.863,233.602 271.363,238.935 276,250.5C 277.387,262.88 272.22,271.38 260.5,276C 248.12,277.387 239.62,272.22 235,260.5C 233.617,251.097 236.784,243.597 244.5,238C 246.727,237.059 248.727,235.892 250.5,234.5 Z M 316.5,234.5 C 331.096,234.091 339.763,241.091 342.5,255.5C 337.984,273.888 326.984,279.722 309.5,273C 296.167,261.333 296.167,249.667 309.5,238C 311.925,236.787 314.259,235.621 316.5,234.5 Z"/></g>
</svg>
